<svg width="50" height="50" viewBox="0 0 50 50" fill="none" xmlns="http://www.w3.org/2000/svg">
<path d="M41.7344 41.6562H8.26562C6.50506 41.6542 4.81719 40.9539 3.57228 39.709C2.32737 38.4641 1.62707 36.7762 1.625 35.0156V14.9844C1.62707 13.2238 2.32737 11.5359 3.57228 10.291C4.81719 9.04612 6.50506 8.34582 8.26562 8.34375H41.7344C43.4949 8.34582 45.1828 9.04612 46.4277 10.291C47.6726 11.5359 48.3729 13.2238 48.375 14.9844V35.0156C48.3729 36.7762 47.6726 38.4641 46.4277 39.709C45.1828 40.9539 43.4949 41.6542 41.7344 41.6562ZM8.26562 10.6875C7.12602 10.6875 6.0331 11.1402 5.22728 11.946C4.42146 12.7518 3.96875 13.8448 3.96875 14.9844V35.0156C3.96875 36.1552 4.42146 37.2482 5.22728 38.054C6.0331 38.8598 7.12602 39.3125 8.26562 39.3125H41.7344C42.874 39.3125 43.9669 38.8598 44.7727 38.054C45.5785 37.2482 46.0312 36.1552 46.0312 35.0156V14.9844C46.0312 13.8448 45.5785 12.7518 44.7727 11.946C43.9669 11.1402 42.874 10.6875 41.7344 10.6875H8.26562Z" fill="white"/>
<path d="M25 29.75C23.5544 29.7522 22.1474 29.2832 20.9922 28.414L2.75001 14.6172C2.62112 14.5267 2.51179 14.4112 2.42853 14.2775C2.34528 14.1439 2.28981 13.9948 2.26545 13.8393C2.24109 13.6837 2.24833 13.5248 2.28674 13.3721C2.32515 13.2194 2.39395 13.076 2.48901 12.9505C2.58408 12.8249 2.70347 12.7199 2.84005 12.6415C2.97663 12.5631 3.12761 12.5131 3.28396 12.4944C3.4403 12.4757 3.59882 12.4887 3.75004 12.5326C3.90126 12.5765 4.04207 12.6504 4.16408 12.75L22.4063 26.5625C23.1554 27.1217 24.0652 27.4238 25 27.4238C25.9348 27.4238 26.8446 27.1217 27.5938 26.5625L45.8359 12.75C45.958 12.6504 46.0988 12.5765 46.25 12.5326C46.4012 12.4887 46.5597 12.4757 46.7161 12.4944C46.8724 12.5131 47.0234 12.5631 47.16 12.6415C47.2966 12.7199 47.4159 12.8249 47.511 12.9505C47.6061 13.076 47.6749 13.2194 47.7133 13.3721C47.7517 13.5248 47.7589 13.6837 47.7346 13.8393C47.7102 13.9948 47.6547 14.1439 47.5715 14.2775C47.4882 14.4112 47.3789 14.5267 47.25 14.6172L29.0078 28.414C27.8527 29.2832 26.4457 29.7522 25 29.75Z" fill="white"/>
<path d="M3.25783 38.3906C3.02015 38.3909 2.78798 38.319 2.59214 38.1843C2.39629 38.0496 2.24602 37.8586 2.16127 37.6366C2.07651 37.4145 2.06128 37.1719 2.1176 36.941C2.17391 36.7101 2.29911 36.5018 2.47658 36.3437L16.8516 23.5234C17.0836 23.3162 17.3885 23.2096 17.6991 23.2272C18.0097 23.2448 18.3006 23.385 18.5078 23.6171C18.715 23.8492 18.8216 24.154 18.804 24.4647C18.7864 24.7753 18.6461 25.0662 18.4141 25.2734L4.03908 38.0937C3.8256 38.2879 3.54642 38.394 3.25783 38.3906ZM46.7422 38.3906C46.4536 38.394 46.1744 38.2879 45.961 38.0937L31.586 25.2734C31.3539 25.0662 31.2136 24.7753 31.1961 24.4647C31.1785 24.154 31.285 23.8492 31.4922 23.6171C31.6994 23.385 31.9903 23.2448 32.3009 23.2272C32.6115 23.2096 32.9164 23.3162 33.1485 23.5234L47.5156 36.3437C47.6931 36.5018 47.8183 36.7101 47.8746 36.941C47.9309 37.1719 47.9157 37.4145 47.831 37.6366C47.7462 37.8586 47.5959 38.0496 47.4001 38.1843C47.2042 38.319 46.9721 38.3909 46.7344 38.3906H46.7422Z" fill="white"/>
</svg>
