<svg width="100" height="49" viewBox="0 0 100 49" fill="none" xmlns="http://www.w3.org/2000/svg">
<path d="M14.1576 32.2986C13.8961 32.2987 13.6384 32.2472 13.4056 32.1482L0.890607 26.7783C0.504753 26.6128 0.213198 26.3269 0.0796673 25.983C-0.0538632 25.639 -0.0185096 25.265 0.178001 24.9427L14.88 0.752041C14.9776 0.591415 15.1123 0.448419 15.2764 0.331255C15.4405 0.21409 15.6307 0.125062 15.8362 0.0692759C16.0417 0.0134902 16.2584 -0.00795508 16.4738 0.00616928C16.6893 0.0202936 16.8993 0.0697092 17.0917 0.151584L28.9975 5.21239C29.3798 5.37442 29.6707 5.6546 29.8082 5.99303C29.9457 6.33145 29.9187 6.70125 29.7331 7.02334L15.6386 31.5176C15.5433 31.6824 15.4096 31.8296 15.2453 31.9508C15.0809 32.072 14.8892 32.1646 14.6813 32.2234C14.5126 32.2714 14.3358 32.2968 14.1576 32.2986ZM3.84448 24.9673L13.4072 29.0707L26.0798 7.04932L17.0655 3.21953L3.84448 24.9673Z" fill="#222222"/>
<path d="M31.1681 13.2627C30.8857 13.2626 30.608 13.2019 30.3619 13.0863L25.5904 10.8472C25.4025 10.7591 25.2373 10.641 25.1041 10.4997C24.971 10.3584 24.8726 10.1967 24.8145 10.0237C24.7564 9.85069 24.7398 9.66986 24.7656 9.49152C24.7914 9.31318 24.8591 9.14082 24.9649 8.98428C25.0706 8.82774 25.2124 8.69009 25.382 8.57918C25.5516 8.46828 25.7458 8.38629 25.9535 8.3379C26.1611 8.28951 26.3782 8.27566 26.5923 8.29715C26.8064 8.31864 27.0133 8.37505 27.2012 8.46316L31.1419 10.311C32.6804 9.53413 36.0103 7.86133 38.1415 6.85875C41.6208 5.2174 44.0706 5.44309 46.8833 7.663C47.1912 7.914 47.3684 8.25576 47.3766 8.61457C47.3848 8.97339 47.2233 9.32052 46.9271 9.58111C46.6309 9.84169 46.2236 9.99485 45.793 10.0076C45.3625 10.0203 44.9432 9.89149 44.6256 9.64903C42.8785 8.2703 41.9689 8.19918 39.7572 9.23869C37.0184 10.5285 32.0778 13.037 32.0269 13.0685C31.7676 13.1978 31.4704 13.2651 31.1681 13.2627Z" fill="#222222"/>
<path d="M74.3629 37.0608C73.1665 37.0864 71.9862 36.8268 70.9608 36.3126C69.4502 35.4728 62.8036 30.0427 61.4867 28.9635C61.1964 28.7061 61.0369 28.3651 61.0416 28.0119C61.0462 27.6587 61.2147 27.3208 61.5118 27.0687C61.8088 26.8167 62.2114 26.6701 62.6352 26.6598C63.059 26.6494 63.4712 26.776 63.7855 27.013C66.741 29.4436 71.8113 33.4991 72.7784 34.0366C73.4018 34.2765 74.0912 34.3721 74.7742 34.3134C75.4572 34.2547 76.1086 34.0438 76.66 33.7029C76.9182 33.5163 77.1241 33.2849 77.2631 33.0248C77.4022 32.7648 77.471 32.4825 77.4647 32.1978C77.4585 31.9132 77.3773 31.6332 77.2269 31.3775C77.0765 31.1219 76.8605 30.8969 76.5943 30.7184C74.9163 29.1454 67.9445 23.558 66.4142 22.3325C61.0745 20.702 55.8963 18.7254 50.9274 16.4209L49.2 17.3619C48.8122 18.8616 47.7776 20.1906 46.2921 21.0973C45.7707 21.4395 45.1655 21.682 44.5191 21.8078C43.8728 21.9335 43.2012 21.9394 42.5518 21.825C41.7638 21.7432 41.0049 21.5253 40.3238 21.1852C39.6427 20.8451 39.0543 20.3903 38.5963 19.8499C37.7231 18.2959 37.6251 16.5168 38.3238 14.9027C39.7243 10.233 41.9968 9.03075 45.1411 7.36752L45.8324 6.99959C49.2969 5.14624 52.2705 4.1587 55.5347 5.38286C57.5641 6.14472 64.7674 8.46859 66.8132 9.12786L73.67 7.25536C74.0808 7.15131 74.5241 7.18541 74.905 7.35036C75.286 7.5153 75.5742 7.79798 75.708 8.13781C75.8417 8.47764 75.8104 8.8476 75.6207 9.16842C75.4309 9.48924 75.0979 9.7354 74.693 9.85415L67.2795 11.8785C66.9206 11.976 66.5324 11.9683 66.1794 11.8566C65.7903 11.7308 56.6315 8.79549 54.1932 7.87907C52.7302 7.33196 51.1852 7.38804 47.6123 9.3002L46.9062 9.67634C44.0377 11.1932 42.5978 11.9564 41.5141 15.566C40.9591 17.4153 41.2152 18.1648 41.4172 18.4384C41.6766 18.7995 42.2776 18.9458 43.2348 19.1455C43.4403 19.1744 43.6509 19.1648 43.8514 19.1175C44.0519 19.0701 44.2372 18.9863 44.394 18.872C44.8572 18.5813 45.244 18.2147 45.5306 17.7949C45.8172 17.375 45.9976 16.9106 46.0606 16.4305C46.0821 16.2243 46.1594 16.0248 46.2868 15.8471C46.4143 15.6694 46.5884 15.5181 46.7962 15.4046L49.957 13.6826C50.2061 13.5476 50.4945 13.4715 50.7915 13.4623C51.0885 13.4532 51.3828 13.5113 51.6433 13.6306C51.7549 13.6812 62.8249 18.7242 67.6736 19.7856C67.9432 19.8456 68.1904 19.9608 68.3928 20.1207C68.7475 20.4039 77.0951 27.0623 79.0556 28.9047C79.5988 29.3427 80.0296 29.8681 80.3218 30.449C80.6139 31.0298 80.7614 31.6541 80.7553 32.2839C80.7491 32.9137 80.5895 33.5358 80.286 34.1127C79.9826 34.6895 79.5416 35.209 78.9899 35.6396C77.7266 36.5944 76.0679 37.1038 74.3629 37.0608Z" fill="#222222"/>
<path d="M77.8275 31.1779C77.4513 31.1777 77.0866 31.0698 76.7944 30.8724C76.5022 30.675 76.3002 30.3999 76.2223 30.0933C76.1444 29.7866 76.1953 29.467 76.3665 29.1879C76.5376 28.9088 76.8187 28.6871 77.1626 28.56L82.9225 26.4344C83.1205 26.3566 83.3352 26.3124 83.5539 26.3047C83.7727 26.297 83.9911 26.3257 84.1963 26.3894C84.4015 26.453 84.5894 26.5501 84.7488 26.6751C84.9083 26.8001 85.0361 26.9504 85.1248 27.1171C85.2135 27.2839 85.2613 27.4637 85.2653 27.6461C85.2693 27.8285 85.2295 28.0096 85.1483 28.179C85.067 28.3484 84.9459 28.5025 84.792 28.6323C84.6382 28.762 84.4548 28.8649 84.2525 28.9347L78.4909 31.0657C78.2815 31.1411 78.0556 31.1793 77.8275 31.1779Z" fill="#222222"/>
<path d="M85.3592 32.2967C85.0319 32.2966 84.7122 32.215 84.441 32.0625C84.1698 31.9099 83.9595 31.6933 83.8371 31.4405L71.4437 5.82735C71.3608 5.65653 71.3203 5.47354 71.3244 5.28935C71.3286 5.10516 71.3773 4.92357 71.4678 4.75546C71.5583 4.58736 71.6886 4.43621 71.8509 4.31109C72.0132 4.18597 72.2042 4.08946 72.4124 4.02734L85.6564 0.0799115C86.057 -0.0394716 86.4977 -0.0246254 86.8854 0.121322C87.2732 0.267269 87.5778 0.532917 87.7351 0.862284L99.8855 26.2675C99.965 26.4355 100.004 26.6149 99.9997 26.7954C99.9955 26.9759 99.9485 27.154 99.8613 27.3193C99.7742 27.4846 99.6486 27.6339 99.4918 27.7585C99.3351 27.8832 99.1502 27.9808 98.948 28.0456L85.947 32.201C85.7598 32.2626 85.5605 32.2951 85.3592 32.2967ZM75.1233 6.12279L86.2738 29.1659L96.2141 25.9926L85.2705 3.09998L75.1233 6.12279ZM66.9661 41.2092C65.6125 41.243 64.2907 40.8642 63.2487 40.1437C61.0501 38.516 55.3985 33.8109 55.1588 33.6112C54.8597 33.3532 54.6942 33.0077 54.6979 32.6491C54.7017 32.2904 54.8744 31.9474 55.1788 31.6938C55.4832 31.4402 55.895 31.2963 56.3256 31.2932C56.7561 31.2901 57.1708 31.428 57.4805 31.6771C57.538 31.725 63.3045 36.5259 65.4292 38.1057C65.8696 38.3292 66.3683 38.4609 66.8828 38.4894C67.3974 38.518 67.9126 38.4427 68.3847 38.2698C69.1557 38.0508 69.8397 37.6595 70.362 37.1388C70.8844 36.618 71.225 35.9878 71.3468 35.3168C71.3834 35.1398 71.4616 34.9705 71.5768 34.8187C71.692 34.6668 71.8419 34.5353 72.0181 34.4318C72.1943 34.3282 72.3932 34.2545 72.6036 34.215C72.8139 34.1755 73.0316 34.1708 73.2441 34.2014C73.4566 34.2319 73.6598 34.297 73.842 34.393C74.0243 34.4889 74.1822 34.6138 74.3065 34.7606C74.4308 34.9074 74.5193 35.0731 74.5667 35.2483C74.6142 35.4235 74.6197 35.6048 74.5831 35.7818C74.3598 36.9309 73.7672 38.0082 72.8681 38.8992C71.969 39.7903 70.797 40.4619 69.4766 40.8427C68.6703 41.0811 67.8216 41.205 66.9661 41.2092Z" fill="#222222"/>
<path d="M59.3244 44.5247C57.9737 44.5727 56.6537 44.1802 55.6448 43.4305L49.8126 38.5721L52.136 36.6367L57.9682 41.4951C58.3291 41.6639 58.7285 41.7677 59.1406 41.7998C59.5527 41.8318 59.9683 41.7914 60.3605 41.6811C61.1137 41.5271 61.8034 41.2073 62.3574 40.7551C62.9114 40.303 63.3094 39.7352 63.5098 39.111C63.5705 38.9369 63.6722 38.7746 63.8089 38.6335C63.9456 38.4924 64.1146 38.3754 64.3061 38.2892C64.4976 38.2031 64.7077 38.1494 64.9243 38.1315C65.1409 38.1136 65.3596 38.1318 65.5677 38.1849C65.7758 38.238 65.9691 38.3251 66.1364 38.441C66.3038 38.5569 66.4418 38.6994 66.5424 38.8602C66.6431 39.021 66.7043 39.1968 66.7227 39.3775C66.741 39.5581 66.716 39.74 66.6492 39.9126C66.1924 41.2381 65.2315 42.4043 63.911 43.236C62.5904 44.0677 60.9799 44.5199 59.3244 44.5247Z" fill="#222222"/>
<path d="M53.0651 48.178C51.7228 48.2018 50.4102 47.8476 49.3396 47.1727C47.8604 46.1862 46.3744 45.2069 44.8817 44.2347C44.7082 44.1252 44.5626 43.9881 44.4533 43.8313C44.344 43.6745 44.2732 43.5011 44.2451 43.3213C44.217 43.1415 44.232 42.9589 44.2894 42.784C44.3468 42.6091 44.4453 42.4454 44.5793 42.3026C44.7133 42.1597 44.88 42.0404 45.0698 41.9517C45.2596 41.863 45.4687 41.8066 45.6849 41.7858C45.9012 41.765 46.1202 41.7802 46.3293 41.8305C46.5384 41.8809 46.7334 41.9654 46.9029 42.0791C46.9029 42.0791 48.9537 43.4127 51.392 45.0376C51.9115 45.2952 52.5023 45.436 53.1067 45.4463C53.7111 45.4566 54.3084 45.336 54.8401 45.0964C55.3155 44.9261 55.7177 44.6399 55.9939 44.2753C56.27 43.9107 56.407 43.485 56.3868 43.0543C56.3735 42.6917 56.5337 42.3396 56.8321 42.0754C57.1305 41.8112 57.5426 41.6566 57.9779 41.6455C58.4118 41.6391 58.8316 41.7743 59.1476 42.0222C59.4636 42.27 59.6507 42.611 59.6691 42.9722C59.7078 43.925 59.4097 44.8662 58.8119 45.6791C58.2141 46.492 57.3429 47.1407 56.3063 47.5447C55.2986 47.9603 54.1896 48.177 53.0651 48.178Z" fill="#222222"/>
<path d="M40.7605 47.5448C40.2268 47.5432 39.6987 47.455 39.2056 47.285C37.8667 46.7377 36.763 45.8598 36.0448 44.771C34.8796 44.9593 33.672 44.8082 32.6246 44.3429C31.7461 43.8631 30.9908 43.2427 30.4028 42.5176C29.8148 41.7925 29.4058 40.9772 29.1995 40.1191C29.113 39.7698 29.1937 39.4061 29.4245 39.1056C30.7594 37.3713 32.7724 34.6753 33.0729 34.1132C33.3433 33.6647 33.7268 33.2702 34.1972 32.9567C34.6677 32.6432 35.2139 32.418 35.7985 32.2968C36.5937 32.1232 37.4255 32.0999 38.2329 32.2286C39.0403 32.3574 39.8029 32.6349 40.465 33.0408C41.1986 33.4454 41.7878 34.0073 42.1704 34.6673C42.553 35.3274 42.7148 36.0611 42.6389 36.7913C43.4199 36.8193 44.1846 36.9866 44.8814 37.2818C45.5782 37.5769 46.1909 37.9932 46.6781 38.5024C47.1514 39.1185 47.4534 39.8149 47.5622 40.5406C47.671 41.2664 47.5838 42.0033 47.307 42.6974C46.4457 44.6997 44.6776 46.3416 42.3811 47.2713C41.8683 47.4519 41.3172 47.5449 40.7605 47.5448ZM38.8099 43.276C39.3254 44.0023 40.2466 45.0445 41.1086 44.745C42.5398 44.124 43.6416 43.0809 44.1988 41.8193C44.3084 41.5401 44.3503 41.2456 44.3221 40.9528C44.2939 40.6599 44.1962 40.3747 44.0346 40.1137C43.7848 39.9099 43.4883 39.7501 43.1627 39.6439C42.8371 39.5377 42.4892 39.4872 42.1397 39.4954L38.8099 43.276ZM32.5852 40.0617C32.8465 40.8217 33.4127 41.4841 34.1894 41.9383C34.4319 42.0419 34.6973 42.1031 34.9693 42.1179C35.2413 42.1327 35.514 42.1009 35.7706 42.0245L39.2762 37.0184C39.4155 36.709 39.4245 36.3694 39.3015 36.0552C39.1786 35.741 38.9311 35.471 38.5997 35.2895C38.3476 35.1239 38.0566 35.0042 37.7455 34.938C37.4344 34.8718 37.1101 34.8606 36.7936 34.9051C36.5141 34.9435 36.2589 35.0609 36.0711 35.2375C35.6376 36.0377 33.5523 38.7951 32.5852 40.0617Z" fill="#222222"/>
<path d="M28.211 42.198C27.8219 42.1989 27.4348 42.1528 27.0616 42.0612C24.2489 41.3568 23.1472 38.323 23.0306 37.9797C22.9717 37.8055 22.9549 37.6234 22.9811 37.4438C23.0073 37.2642 23.0761 37.0907 23.1833 36.9333C24.5789 34.9139 26.1225 32.9679 27.8054 31.1066C28.6502 30.191 29.8743 29.5707 31.2388 29.3666C32.6032 29.1625 34.0099 29.3893 35.1843 30.0028C36.7343 30.8987 37.8706 32.8478 35.9692 35.3946C35.8555 35.5473 35.7067 35.6798 35.5315 35.7846C35.3563 35.8894 35.158 35.9644 34.948 36.0054C34.7379 36.0463 34.5203 36.0524 34.3074 36.0233C34.0946 35.9942 33.8907 35.9305 33.7074 35.8357C33.5241 35.741 33.365 35.6171 33.2392 35.4711C33.1134 35.3251 33.0234 35.16 32.9742 34.985C32.925 34.81 32.9177 34.6287 32.9527 34.4514C32.9876 34.2741 33.0641 34.1043 33.1779 33.9516C33.5999 33.3839 33.966 32.6303 33.3109 32.2514C32.8321 32.0335 32.2751 31.9665 31.7418 32.0624C31.2085 32.1583 30.7345 32.4109 30.4063 32.7739C28.9639 34.3705 27.6291 36.0327 26.4081 37.7527C26.7677 38.468 27.3801 39.2873 28.0057 39.4419C28.5591 39.5786 29.3193 39.1054 29.7314 38.8127C30.0611 38.5754 30.4904 38.457 30.9248 38.4834C31.3593 38.5098 31.7634 38.679 32.0482 38.9536C32.333 39.2282 32.4752 39.5858 32.4435 39.9477C32.4118 40.3097 32.2087 40.6463 31.8791 40.8835C30.8919 41.6823 29.5861 42.1502 28.211 42.198Z" fill="#222222"/>
<path d="M24.6069 38.9713C24.4265 38.9711 24.2473 38.9462 24.0766 38.8975C23.7991 38.8195 17.2543 36.9142 17.2543 32.6439C17.2541 32.5005 17.2807 32.3579 17.3331 32.2213C17.9272 30.8593 18.7408 29.5709 19.7517 28.3915C20.5039 27.6427 21.5429 27.1327 22.6937 26.9473C23.8445 26.762 25.0368 26.9126 26.0699 27.3739C27.0424 27.7329 27.818 28.3825 28.2436 29.1946C28.6691 30.0067 28.7138 30.9222 28.3686 31.7604C27.2948 34.6409 26.1931 37.9332 26.1816 37.9674C26.0851 38.255 25.8784 38.5084 25.5929 38.6889C25.3074 38.8694 24.9588 38.9672 24.6004 38.9672L24.6069 38.9713ZM20.5513 32.856C20.7155 34.1362 22.2885 35.1101 23.5495 35.6941C23.9781 34.4467 24.6135 32.6316 25.2374 30.9534C25.2947 30.8468 25.324 30.7312 25.3234 30.6144C25.3227 30.4976 25.2922 30.3823 25.2337 30.2761C25.1753 30.1699 25.0903 30.0754 24.9845 29.9987C24.8787 29.9221 24.7544 29.8652 24.6201 29.8318C24.2808 29.6724 23.8925 29.6003 23.5041 29.6246C23.1157 29.649 22.7447 29.7686 22.4379 29.9686C21.6766 30.8668 21.0435 31.8358 20.5513 32.856Z" fill="#222222"/>
<path d="M20.2442 31.6526C19.9136 31.6523 19.5909 31.5689 19.3182 31.4132L15.0113 28.9512C14.6518 28.7463 14.4048 28.4307 14.3246 28.0741C14.2444 27.7174 14.3375 27.3488 14.5836 27.0493C14.8296 26.7499 15.2084 26.5441 15.6366 26.4773C16.0647 26.4104 16.5072 26.488 16.8667 26.693L21.1736 29.155C21.4637 29.3199 21.6826 29.558 21.7983 29.8342C21.914 30.1105 21.9204 30.4103 21.8164 30.6898C21.7124 30.9692 21.5036 31.2135 21.2206 31.3868C20.9376 31.5601 20.5954 31.6533 20.2442 31.6526Z" fill="#222222"/>
</svg>
