<svg width="75" height="75" viewBox="0 0 75 75" fill="none" xmlns="http://www.w3.org/2000/svg">
<path d="M35.9375 18.75H42.1875C42.6019 18.75 42.9993 18.5854 43.2924 18.2924C43.5854 17.9993 43.75 17.6019 43.75 17.1875C43.75 16.7731 43.5854 16.3757 43.2924 16.0826C42.9993 15.7896 42.6019 15.625 42.1875 15.625H35.9375C35.5231 15.625 35.1257 15.7896 34.8326 16.0826C34.5396 16.3757 34.375 16.7731 34.375 17.1875C34.375 17.6019 34.5396 17.9993 34.8326 18.2924C35.1257 18.5854 35.5231 18.75 35.9375 18.75ZM60.9375 25C60.6285 25 60.3264 25.0916 60.0694 25.2633C59.8125 25.435 59.6122 25.679 59.4939 25.9646C59.3757 26.2501 59.3447 26.5642 59.405 26.8673C59.4653 27.1704 59.6141 27.4488 59.8326 27.6674C60.0512 27.8859 60.3296 28.0347 60.6327 28.095C60.9358 28.1553 61.2499 28.1243 61.5354 28.0061C61.8209 27.8878 62.065 27.6875 62.2367 27.4306C62.4084 27.1736 62.5 26.8715 62.5 26.5625C62.5 26.1481 62.3354 25.7507 62.0424 25.4576C61.7493 25.1646 61.3519 25 60.9375 25ZM68.75 18.9063V17.1875C68.75 15.9443 68.2561 14.752 67.3771 13.8729C66.498 12.9939 65.3057 12.5 64.0625 12.5H60.9375C59.6943 12.5 58.502 12.9939 57.6229 13.8729C56.7439 14.752 56.25 15.9443 56.25 17.1875V18.75H52.6875L51.3438 14.7188C50.8258 13.1637 49.8319 11.811 48.5028 10.852C47.1736 9.89294 45.5765 9.37624 43.9375 9.375H34.1875C32.5485 9.37624 30.9514 9.89294 29.6222 10.852C28.2931 11.811 27.2992 13.1637 26.7812 14.7188L25.4375 18.75H21.875V17.1875C21.875 15.9443 21.3811 14.752 20.5021 13.8729C19.623 12.9939 18.4307 12.5 17.1875 12.5H10.9375C9.6943 12.5 8.50201 12.9939 7.62294 13.8729C6.74386 14.752 6.25 15.9443 6.25 17.1875V18.9063C4.48537 19.2665 2.89938 20.2253 1.76046 21.6205C0.621537 23.0156 -0.000367423 24.7615 1.62857e-07 26.5625V57.8125C-0.000367423 59.6135 0.621537 61.3594 1.76046 62.7545C2.89938 64.1497 4.48537 65.1085 6.25 65.4688V65.625H67.1875C68.2135 65.625 69.2294 65.4229 70.1772 65.0303C71.1251 64.6377 71.9863 64.0622 72.7118 63.3368C73.4372 62.6113 74.0127 61.7501 74.4053 60.8022C74.7979 59.8544 75 58.8385 75 57.8125V26.5625C75.0004 24.7615 74.3785 23.0156 73.2395 21.6205C72.1006 20.2253 70.5146 19.2665 68.75 18.9063ZM59.375 17.1875C59.375 16.7731 59.5396 16.3757 59.8326 16.0826C60.1257 15.7896 60.5231 15.625 60.9375 15.625H64.0625C64.4769 15.625 64.8743 15.7896 65.1674 16.0826C65.4604 16.3757 65.625 16.7731 65.625 17.1875V18.75H59.375V17.1875ZM9.375 17.1875C9.375 16.7731 9.53962 16.3757 9.83265 16.0826C10.1257 15.7896 10.5231 15.625 10.9375 15.625H17.1875C17.6019 15.625 17.9993 15.7896 18.2924 16.0826C18.5854 16.3757 18.75 16.7731 18.75 17.1875V18.75H9.375V17.1875ZM14.0625 57.8125C14.0625 59.0557 13.5686 60.248 12.6896 61.1271C11.8105 62.0061 10.6182 62.5 9.375 62.5H7.8125C6.5693 62.5 5.37701 62.0061 4.49794 61.1271C3.61886 60.248 3.125 59.0557 3.125 57.8125V32.8125H9.59375C9.87431 33.8873 10.4362 34.8679 11.2217 35.6533C12.0071 36.4388 12.9877 37.0007 14.0625 37.2812V57.8125ZM12.5 31.25C12.5 30.6319 12.6833 30.0277 13.0267 29.5138C13.37 28.9999 13.8581 28.5994 14.4291 28.3629C15.0001 28.1264 15.6285 28.0645 16.2347 28.185C16.8408 28.3056 17.3977 28.6033 17.8347 29.0403C18.2717 29.4773 18.5694 30.0342 18.69 30.6403C18.8105 31.2465 18.7486 31.8749 18.5121 32.4459C18.2756 33.0169 17.8751 33.505 17.3612 33.8483C16.8473 34.1917 16.2431 34.375 15.625 34.375C14.7962 34.375 14.0013 34.0458 13.4153 33.4597C12.8292 32.8737 12.5 32.0788 12.5 31.25ZM71.875 57.8125C71.875 59.0557 71.3811 60.248 70.5021 61.1271C69.623 62.0061 68.4307 62.5 67.1875 62.5H15.625C16.6545 61.1538 17.2143 59.5072 17.2188 57.8125V37.2812C18.2859 37.0045 19.261 36.4505 20.0449 35.6752C20.8288 34.9 21.3936 33.9312 21.6822 32.8672C21.9708 31.8031 21.9727 30.6817 21.6879 29.6166C21.4031 28.5516 20.8416 27.5808 20.0604 26.8028C19.2792 26.0249 18.3062 25.4674 17.24 25.1869C16.1737 24.9065 15.0523 24.913 13.9895 25.206C12.9266 25.4989 11.9601 26.0678 11.1881 26.8548C10.4161 27.6419 9.86607 28.6192 9.59375 29.6875H3.125V26.5625C3.125 25.3193 3.61886 24.127 4.49794 23.2479C5.37701 22.3689 6.5693 21.875 7.8125 21.875H26.5625H26.9062H27.1562L27.4063 21.7187L27.6563 21.5312V21.3125C27.8455 21.1932 28.0057 21.033 28.125 20.8438L29.75 15.625C30.0741 14.7082 30.6754 13.9148 31.4705 13.3549C32.2655 12.795 33.2151 12.4963 34.1875 12.5H43.9375C44.9099 12.4963 45.8595 12.795 46.6545 13.3549C47.4496 13.9148 48.0509 14.7082 48.375 15.625L50 20.8125C50.0984 21.0843 50.2718 21.3226 50.5 21.5C50.7936 21.7555 51.1735 21.8896 51.5625 21.875H67.1875C68.4307 21.875 69.623 22.3689 70.5021 23.2479C71.3811 24.127 71.875 25.3193 71.875 26.5625V57.8125ZM45.3125 25C41.9131 25 38.5901 26.008 35.7636 27.8966C32.9372 29.7852 30.7342 32.4695 29.4333 35.6101C28.1324 38.7507 27.7921 42.2066 28.4553 45.5406C29.1184 48.8747 30.7554 51.9372 33.1591 54.3409C35.5628 56.7446 38.6253 58.3816 41.9594 59.0448C45.2934 59.7079 48.7493 59.3676 51.8899 58.0667C55.0305 56.7658 57.7148 54.5628 59.6034 51.7364C61.492 48.9099 62.5 45.5869 62.5 42.1875C62.4917 37.6316 60.6783 33.2647 57.4568 30.0432C54.2353 26.8217 49.8684 25.0083 45.3125 25ZM45.3125 56.25C42.5312 56.25 39.8124 55.4253 37.4998 53.88C35.1872 52.3348 33.3848 50.1386 32.3204 47.569C31.2561 44.9994 30.9776 42.1719 31.5202 39.444C32.0628 36.7162 33.4021 34.2105 35.3688 32.2438C37.3355 30.2771 39.8412 28.9378 42.569 28.3952C45.2969 27.8526 48.1244 28.1311 50.694 29.1954C53.2636 30.2598 55.4598 32.0622 57.005 34.3748C58.5503 36.6874 59.375 39.4062 59.375 42.1875C59.375 44.0342 59.0113 45.8628 58.3046 47.569C57.5978 49.2751 56.562 50.8254 55.2562 52.1312C53.9504 53.437 52.4001 54.4728 50.694 55.1796C48.9878 55.8863 47.1592 56.25 45.3125 56.25ZM45.3125 31.25C43.1493 31.25 41.0346 31.8915 39.236 33.0933C37.4373 34.2951 36.0354 36.0033 35.2076 38.0019C34.3797 40.0005 34.1631 42.1996 34.5852 44.3213C35.0072 46.443 36.0489 48.3918 37.5785 49.9215C39.1082 51.4511 41.057 52.4928 43.1787 52.9148C45.3004 53.3369 47.4995 53.1203 49.4981 52.2924C51.4967 51.4646 53.2049 50.0627 54.4067 48.264C55.6085 46.4654 56.25 44.3507 56.25 42.1875C56.25 39.2867 55.0977 36.5047 53.0465 34.4535C50.9953 32.4023 48.2133 31.25 45.3125 31.25ZM45.3125 50C43.7673 50 42.2569 49.5418 40.9721 48.6834C39.6873 47.8249 38.686 46.6048 38.0947 45.1772C37.5034 43.7497 37.3487 42.1788 37.6501 40.6634C37.9516 39.1479 38.6956 37.7558 39.7882 36.6632C40.8808 35.5706 42.2729 34.8266 43.7884 34.5251C45.3038 34.2237 46.8747 34.3784 48.3022 34.9697C49.7298 35.561 50.9499 36.5623 51.8084 37.8471C52.6668 39.1319 53.125 40.6423 53.125 42.1875C53.125 44.2595 52.3019 46.2466 50.8368 47.7118C49.3716 49.1769 47.3845 50 45.3125 50Z" fill="black"/>
</svg>
