<svg width="75" height="75" viewBox="0 0 75 75" fill="none" xmlns="http://www.w3.org/2000/svg">
<path d="M70.3125 67.1875H4.68751C4.31766 67.1873 3.95986 67.056 3.67776 66.8168C3.39565 66.5776 3.20754 66.2461 3.14689 65.8813L1.58439 56.5063C1.54719 56.2825 1.55915 56.0534 1.61944 55.8347C1.67972 55.616 1.78688 55.4131 1.93349 55.2401C2.08009 55.067 2.26261 54.9279 2.46837 54.8325C2.67413 54.7371 2.8982 54.6876 3.12501 54.6875H71.875C72.1018 54.6876 72.3259 54.7371 72.5317 54.8325C72.7374 54.9279 72.9199 55.067 73.0665 55.2401C73.2131 55.4131 73.3203 55.616 73.3806 55.8347C73.4409 56.0534 73.4528 56.2825 73.4156 56.5063L71.8531 65.8813C71.7925 66.2461 71.6044 66.5776 71.3223 66.8168C71.0402 67.056 70.6824 67.1873 70.3125 67.1875ZM6.01095 64.0625H68.9891L70.0297 57.8125H4.97033L6.01095 64.0625Z" fill="black"/>
<path d="M68.75 57.8125H6.25C5.8356 57.8125 5.43817 57.6479 5.14515 57.3549C4.85212 57.0618 4.6875 56.6644 4.6875 56.25V10.9375C4.68833 10.109 5.01783 9.31458 5.6037 8.72871C6.18958 8.14283 6.98395 7.81333 7.8125 7.8125H67.1875C68.016 7.81333 68.8104 8.14283 69.3963 8.72871C69.9822 9.31458 70.3117 10.109 70.3125 10.9375V56.25C70.3125 56.6644 70.1479 57.0618 69.8549 57.3549C69.5618 57.6479 69.1644 57.8125 68.75 57.8125ZM7.8125 54.6875H67.1875V10.9375H7.8125V54.6875Z" fill="black"/>
<path d="M62.5 51.5625H12.5C12.0856 51.5625 11.6882 51.3979 11.3951 51.1049C11.1021 50.8118 10.9375 50.4144 10.9375 50V15.625C10.9375 15.2106 11.1021 14.8132 11.3951 14.5201C11.6882 14.2271 12.0856 14.0625 12.5 14.0625H62.5C62.9144 14.0625 63.3118 14.2271 63.6049 14.5201C63.8979 14.8132 64.0625 15.2106 64.0625 15.625V50C64.0625 50.4144 63.8979 50.8118 63.6049 51.1049C63.3118 51.3979 62.9144 51.5625 62.5 51.5625ZM14.0625 48.4375H60.9375V17.1875H14.0625V48.4375Z" fill="black"/>
<path d="M40.625 51.5625C40.2106 51.5625 39.8131 51.3979 39.5201 51.1049C39.2271 50.8118 39.0625 50.4144 39.0625 50V15.625C39.0625 15.2106 39.2271 14.8132 39.5201 14.5201C39.8131 14.2271 40.2106 14.0625 40.625 14.0625C41.0394 14.0625 41.4368 14.2271 41.7298 14.5201C42.0229 14.8132 42.1875 15.2106 42.1875 15.625V50C42.1875 50.4144 42.0229 50.8118 41.7298 51.1049C41.4368 51.3979 41.0394 51.5625 40.625 51.5625ZM20.3125 37.5C20.1073 37.5002 19.904 37.4599 19.7145 37.3813C19.5249 37.3027 19.3527 37.1875 19.2078 37.0422L16.0828 33.9172C15.7899 33.6242 15.6253 33.2268 15.6253 32.8125C15.6253 32.3982 15.7899 32.0008 16.0828 31.7078L19.2078 28.5828C19.5025 28.2982 19.8972 28.1407 20.3068 28.1443C20.7165 28.1478 21.1084 28.3121 21.3981 28.6018C21.6878 28.8915 21.8522 29.2834 21.8557 29.6931C21.8593 30.1028 21.7018 30.4975 21.4172 30.7922L19.3968 32.8125L21.4172 34.8328C21.6356 35.0513 21.7844 35.3297 21.8446 35.6328C21.9049 35.9358 21.874 36.2499 21.7557 36.5354C21.6375 36.8209 21.4373 37.0649 21.1804 37.2366C20.9235 37.4083 20.6215 37.4999 20.3125 37.5ZM32.8125 37.5C32.5035 37.4999 32.2015 37.4083 31.9446 37.2366C31.6877 37.0649 31.4875 36.8209 31.3692 36.5354C31.251 36.2499 31.22 35.9358 31.2803 35.6328C31.3406 35.3297 31.4893 35.0513 31.7078 34.8328L33.7281 32.8125L31.7078 30.7922C31.4232 30.4975 31.2657 30.1028 31.2692 29.6931C31.2728 29.2834 31.4371 28.8915 31.7268 28.6018C32.0165 28.3121 32.4084 28.1478 32.8181 28.1443C33.2278 28.1407 33.6225 28.2982 33.9172 28.5828L37.0422 31.7078C37.3351 32.0008 37.4996 32.3982 37.4996 32.8125C37.4996 33.2268 37.3351 33.6242 37.0422 33.9172L33.9172 37.0422C33.7723 37.1875 33.6001 37.3027 33.4105 37.3813C33.2209 37.4599 33.0177 37.5002 32.8125 37.5ZM25.0015 40.625C24.7642 40.6249 24.5299 40.5707 24.3166 40.4666C24.1033 40.3625 23.9164 40.2113 23.7702 40.0243C23.624 39.8373 23.5223 39.6194 23.4728 39.3873C23.4232 39.1551 23.4272 38.9148 23.4843 38.6844L26.6093 26.1844C26.7173 25.7908 26.9749 25.455 27.3272 25.2489C27.6795 25.0428 28.0984 24.9828 28.4944 25.0816C28.8904 25.1804 29.2321 25.4302 29.4463 25.7776C29.6604 26.125 29.7302 26.5424 29.6406 26.9406L26.5156 39.4406C26.4313 39.7788 26.2363 40.0791 25.9616 40.2937C25.687 40.5083 25.3501 40.6249 25.0015 40.625ZM46.875 25H45.3125C44.8981 25 44.5006 24.8354 44.2076 24.5424C43.9146 24.2493 43.75 23.8519 43.75 23.4375C43.75 23.0231 43.9146 22.6257 44.2076 22.3326C44.5006 22.0396 44.8981 21.875 45.3125 21.875H46.875C47.2894 21.875 47.6868 22.0396 47.9798 22.3326C48.2729 22.6257 48.4375 23.0231 48.4375 23.4375C48.4375 23.8519 48.2729 24.2493 47.9798 24.5424C47.6868 24.8354 47.2894 25 46.875 25ZM57.8125 25H51.5625C51.1481 25 50.7506 24.8354 50.4576 24.5424C50.1646 24.2493 50 23.8519 50 23.4375C50 23.0231 50.1646 22.6257 50.4576 22.3326C50.7506 22.0396 51.1481 21.875 51.5625 21.875H57.8125C58.2269 21.875 58.6243 22.0396 58.9173 22.3326C59.2104 22.6257 59.375 23.0231 59.375 23.4375C59.375 23.8519 59.2104 24.2493 58.9173 24.5424C58.6243 24.8354 58.2269 25 57.8125 25ZM57.8125 31.25H56.25C55.8356 31.25 55.4381 31.0854 55.1451 30.7924C54.8521 30.4993 54.6875 30.1019 54.6875 29.6875C54.6875 29.2731 54.8521 28.8757 55.1451 28.5826C55.4381 28.2896 55.8356 28.125 56.25 28.125H57.8125C58.2269 28.125 58.6243 28.2896 58.9173 28.5826C59.2104 28.8757 59.375 29.2731 59.375 29.6875C59.375 30.1019 59.2104 30.4993 58.9173 30.7924C58.6243 31.0854 58.2269 31.25 57.8125 31.25ZM48.4375 43.75H45.3125C44.8981 43.75 44.5006 43.5854 44.2076 43.2924C43.9146 42.9993 43.75 42.6019 43.75 42.1875C43.75 41.7731 43.9146 41.3757 44.2076 41.0826C44.5006 40.7896 44.8981 40.625 45.3125 40.625H48.4375C48.8519 40.625 49.2493 40.7896 49.5423 41.0826C49.8354 41.3757 50 41.7731 50 42.1875C50 42.6019 49.8354 42.9993 49.5423 43.2924C49.2493 43.5854 48.8519 43.75 48.4375 43.75ZM57.8125 43.75H53.125C52.7106 43.75 52.3131 43.5854 52.0201 43.2924C51.7271 42.9993 51.5625 42.6019 51.5625 42.1875C51.5625 41.7731 51.7271 41.3757 52.0201 41.0826C52.3131 40.7896 52.7106 40.625 53.125 40.625H57.8125C58.2269 40.625 58.6243 40.7896 58.9173 41.0826C59.2104 41.3757 59.375 41.7731 59.375 42.1875C59.375 42.6019 59.2104 42.9993 58.9173 43.2924C58.6243 43.5854 58.2269 43.75 57.8125 43.75ZM51.5625 31.25H45.3125C44.8981 31.25 44.5006 31.0854 44.2076 30.7924C43.9146 30.4993 43.75 30.1019 43.75 29.6875C43.75 29.2731 43.9146 28.8757 44.2076 28.5826C44.5006 28.2896 44.8981 28.125 45.3125 28.125H51.5625C51.9769 28.125 52.3743 28.2896 52.6673 28.5826C52.9604 28.8757 53.125 29.2731 53.125 29.6875C53.125 30.1019 52.9604 30.4993 52.6673 30.7924C52.3743 31.0854 51.9769 31.25 51.5625 31.25ZM57.8125 37.5H45.3125C44.8981 37.5 44.5006 37.3354 44.2076 37.0424C43.9146 36.7493 43.75 36.3519 43.75 35.9375C43.75 35.5231 43.9146 35.1257 44.2076 34.8326C44.5006 34.5396 44.8981 34.375 45.3125 34.375H57.8125C58.2269 34.375 58.6243 34.5396 58.9173 34.8326C59.2104 35.1257 59.375 35.5231 59.375 35.9375C59.375 36.3519 59.2104 36.7493 58.9173 37.0424C58.6243 37.3354 58.2269 37.5 57.8125 37.5Z" fill="black"/>
</svg>
